<svg width="65" height="64" viewBox="0 0 65 64" fill="none" xmlns="http://www.w3.org/2000/svg">
<path d="M7.90804 32C7.90804 38.5085 10.4935 44.7504 15.0957 49.3526C19.6979 53.9547 25.9398 56.5402 32.4483 56.5402C38.9567 56.5402 45.1986 53.9547 49.8008 49.3526C54.403 44.7504 56.9885 38.5085 56.9885 32M7.90804 32C7.90804 25.4915 10.4935 19.2496 15.0957 14.6474C19.6979 10.0453 25.9398 7.45978 32.4483 7.45978C38.9567 7.45978 45.1986 10.0453 49.8008 14.6474C54.403 19.2496 56.9885 25.4915 56.9885 32M7.90804 32H3M56.9885 32H61.8965M56.9885 32H32.4483L17.7241 6.49453M4.77671 42.068L9.39027 40.3895M55.5095 23.604L60.1231 21.9254M9.89089 50.9287L13.6537 47.7744M51.2493 16.2255L55.0089 13.0713M17.7274 57.5055L20.1814 53.2518L32.4548 32M44.7216 10.7482L47.1757 6.49453M27.3374 61L28.1881 56.1672M36.7117 7.83279L37.5624 3M37.5624 61L36.7117 56.1672M28.1881 7.83279L27.3374 3M47.1724 57.5022L44.7184 53.2518M55.0056 50.9287L51.2461 47.7744M13.6537 16.2223L9.89089 13.068M60.1231 42.0713L55.5095 40.3927M9.39355 23.6072L4.77998 21.9254" stroke="#8B2CF2" stroke-width="5.8" stroke-linecap="round" stroke-linejoin="round"/>
</svg>
